<svg width="25" height="25" viewBox="0 0 25 25" fill="none"
    xmlns="http://www.w3.org/2000/svg">
    <path d="M15.1367 25H5.85938C2.62852 25 0 22.3715 0 19.1406V5.85938C0 2.62852 2.62852 0 5.85938 0H19.1406C22.3715 0 25 2.62852 25 5.85938V15.21C25 15.7493 24.5628 16.1865 24.0234 16.1865C23.4841 16.1865 23.0469 15.7493 23.0469 15.21V5.85938C23.0469 3.70547 21.2945 1.95312 19.1406 1.95312H5.85938C3.70547 1.95312 1.95312 3.70547 1.95312 5.85938V19.1406C1.95312 21.2945 3.70547 23.0469 5.85938 23.0469H15.1367C15.6761 23.0469 16.1133 23.4841 16.1133 24.0234C16.1133 24.5628 15.6761 25 15.1367 25ZM20.1172 6.15234C20.1172 5.61299 19.68 5.17578 19.1406 5.17578H10.2051C9.66572 5.17578 9.22852 5.61299 9.22852 6.15234C9.22852 6.6917 9.66572 7.12891 10.2051 7.12891H19.1406C19.68 7.12891 20.1172 6.6917 20.1172 6.15234ZM20.1172 10.0586C20.1172 9.51924 19.68 9.08203 19.1406 9.08203H5.85938C5.32002 9.08203 4.88281 9.51924 4.88281 10.0586C4.88281 10.5979 5.32002 11.0352 5.85938 11.0352H19.1406C19.68 11.0352 20.1172 10.5979 20.1172 10.0586ZM10.3516 13.9648C10.3516 13.4255 9.91436 12.9883 9.375 12.9883H5.85938C5.32002 12.9883 4.88281 13.4255 4.88281 13.9648C4.88281 14.5042 5.32002 14.9414 5.85938 14.9414H9.375C9.91436 14.9414 10.3516 14.5042 10.3516 13.9648ZM4.88281 6.05469C4.88281 6.72886 5.42935 7.27539 6.10352 7.27539C6.77769 7.27539 7.32422 6.72886 7.32422 6.05469C7.32422 5.38052 6.77769 4.83398 6.10352 4.83398C5.42935 4.83398 4.88281 5.38052 4.88281 6.05469ZM23.956 23.956C25.3458 22.5662 25.3458 20.3049 23.956 18.9151L20.5327 15.4918C19.5433 14.5024 18.2951 13.8345 16.923 13.5603L14.1563 13.0072C13.8362 12.9431 13.5052 13.0435 13.2743 13.2743C13.0435 13.5052 12.9433 13.8361 13.0072 14.1563L13.5603 16.9231C13.8345 18.2952 14.5024 19.5433 15.4918 20.5328L18.9151 23.956C19.5883 24.6292 20.4834 25 21.4355 25C22.3876 25 23.2828 24.6292 23.956 23.956ZM16.5402 15.4755C17.5329 15.6739 18.4358 16.157 19.1516 16.8729L22.5749 20.2961C23.2032 20.9244 23.2032 21.9466 22.5749 22.5749C22.2706 22.8792 21.8659 23.0469 21.4355 23.0469C21.0052 23.0469 20.6005 22.8792 20.2962 22.5749L16.8729 19.1517C16.1571 18.4358 15.6739 17.5329 15.4755 16.5403L15.2096 15.2096L16.5402 15.4755Z" fill="#A2A2C2"/>
</svg>
